<svg width="22" height="21" viewBox="0 0 22 21" fill="none" xmlns="http://www.w3.org/2000/svg">
<g filter="url(#filter0_i_4034_104)">
<path d="M21.7624 10.3837C21.7624 16.1181 17.1131 20.7674 11.3787 20.7674C5.6443 20.7674 0.994995 16.1181 0.994995 10.3837C0.994995 4.6493 5.6443 0 11.3787 0C17.1131 0 21.7624 4.6493 21.7624 10.3837Z" fill="#F2F2F2"/>
</g>
<path d="M14.2277 10.3028C16.045 11.0656 16.9392 12.8913 16.3461 14.7808C15.9421 16.0705 14.7908 17.1122 13.5573 17.5832C12.002 18.1788 9.9133 18.1406 8.37931 17.506C5.268 16.2206 4.54219 12.6513 4.85112 9.68175C5.06631 7.60316 5.93415 5.57699 7.85022 4.53522C9.29402 3.74699 11.1419 3.63509 12.7228 3.96511C14.364 4.30789 15.6963 5.276 16.5038 6.74199C16.7531 7.1917 16.9548 7.68885 17.1053 8.24196C17.1096 8.26321 17.1011 8.28517 17.0798 8.28942L15.9371 8.5897C15.9158 8.59395 15.8937 8.58119 15.8895 8.5642C15.7176 7.91265 15.447 7.33404 15.0728 6.82909C13.9038 5.24342 11.7598 4.81921 9.91189 5.14923C7.73305 5.53945 6.52999 7.06494 6.17774 9.15981C5.89012 10.8609 5.98031 12.8319 6.76648 14.4005C7.42837 15.7206 8.62716 16.4614 10.071 16.6675C10.8486 16.7744 11.6092 16.7617 12.3528 16.6243C13.4188 16.4274 14.5615 15.7242 15.0252 14.7171C15.3263 14.0655 15.3561 13.2391 15.0252 12.5918C14.8363 12.2235 14.5522 11.9275 14.1787 11.7051C14.1616 11.6923 14.1353 11.7008 14.1268 11.7178C14.1226 11.7221 14.1226 11.7263 14.1226 11.7306C14.0792 12.0479 14.0068 12.3602 13.8989 12.6647C13.744 13.0974 13.521 13.4707 13.2242 13.7745C12.2271 14.7985 10.4914 14.8885 9.31818 14.1512C8.38145 13.5599 8.02919 12.3517 8.4759 11.3574C8.93965 10.329 10.0745 9.88359 11.1526 9.8319C11.7626 9.80215 12.3258 9.82764 12.8457 9.90059C12.867 9.90484 12.884 9.88784 12.889 9.8666V9.85384C12.8414 9.618 12.786 9.42538 12.7171 9.27524C12.3563 8.48276 11.5439 8.27242 10.7322 8.37511C10.2123 8.43956 9.80393 8.68389 9.49855 9.10386C9.48577 9.12086 9.46447 9.1251 9.44671 9.11235L8.4759 8.4523C8.45885 8.43955 8.4546 8.41832 8.46739 8.39636C8.98724 7.66762 9.69173 7.24339 10.5858 7.12795C11.3251 7.02951 12.1539 7.14495 12.7988 7.53517C13.7653 8.12652 14.1091 9.18954 14.195 10.2646C14.2035 10.2858 14.212 10.2986 14.2248 10.3028H14.2277ZM9.59088 11.9827C9.39771 12.63 9.84442 13.1399 10.4502 13.2936C11.301 13.5082 12.2463 13.3191 12.6504 12.4494C12.8094 12.1066 12.9039 11.7037 12.9337 11.2455C12.9337 11.2242 12.9209 11.2072 12.9039 11.2072C12.2725 11.0833 11.6234 11.0571 10.9615 11.1215C10.4246 11.1775 9.75849 11.4218 9.59088 11.9827Z" fill="#1A1A1A"/>
<defs>
<filter id="filter0_i_4034_104" x="0.994995" y="0" width="20.7675" height="24.7674" filterUnits="userSpaceOnUse" color-interpolation-filters="sRGB">
<feFlood flood-opacity="0" result="BackgroundImageFix"/>
<feBlend mode="normal" in="SourceGraphic" in2="BackgroundImageFix" result="shape"/>
<feColorMatrix in="SourceAlpha" type="matrix" values="0 0 0 0 0 0 0 0 0 0 0 0 0 0 0 0 0 0 127 0" result="hardAlpha"/>
<feOffset dy="4"/>
<feGaussianBlur stdDeviation="7.5"/>
<feComposite in2="hardAlpha" operator="arithmetic" k2="-1" k3="1"/>
<feColorMatrix type="matrix" values="0 0 0 0 0 0 0 0 0 0 0 0 0 0 0 0 0 0 0.2 0"/>
<feBlend mode="normal" in2="shape" result="effect1_innerShadow_4034_104"/>
</filter>
</defs>
</svg>
