<svg width="28" height="28" viewBox="0 0 28 28" fill="none" xmlns="http://www.w3.org/2000/svg">
<path d="M14.187 12.6817C14.0703 12.67 13.9303 12.67 13.802 12.6817C11.0253 12.5884 8.82031 10.3134 8.82031 7.51337C8.82031 4.65504 11.1303 2.33337 14.0003 2.33337C16.8586 2.33337 19.1803 4.65504 19.1803 7.51337C19.1686 10.3134 16.9636 12.5884 14.187 12.6817Z" fill="white" stroke="white" stroke-width="2" stroke-linecap="round" stroke-linejoin="round"/>
<path d="M8.35285 16.9865C5.52952 18.8765 5.52952 21.9565 8.35285 23.8348C11.5612 25.9815 16.8229 25.9815 20.0312 23.8348C22.8545 21.9448 22.8545 18.8648 20.0312 16.9865C16.8345 14.8515 11.5729 14.8515 8.35285 16.9865Z" fill="white" stroke="white" stroke-width="2" stroke-linecap="round" stroke-linejoin="round"/>
</svg>
