<svg width="58" height="66" viewBox="0 0 58 66" fill="none" xmlns="http://www.w3.org/2000/svg">
<path d="M51.8745 18.1583C51.8745 18.1583 51.8745 21.4754 51.8745 21.5026C51.8745 23.6413 48.5234 23.6754 48.5234 21.5026C48.5234 21.5026 48.5234 11.6127 48.5234 11.565C48.5234 8.17301 43.231 8.13214 43.231 11.565C43.231 11.565 43.231 18.1038 43.231 18.1515C43.231 20.2766 39.8799 20.3243 39.8799 18.1515C39.8799 18.1515 39.8799 7.07637 39.8799 7.02869C39.8799 3.6435 34.5876 3.59582 34.5876 7.02869C34.5876 7.02869 34.5876 11.1563 34.5876 11.1631C34.5876 13.2678 31.2364 13.37 31.2364 11.1631C31.2364 11.1631 31.2364 2.5469 31.2364 2.52646C31.2364 -0.76337 25.9373 -0.920029 25.9373 2.52646C25.9373 2.52646 25.9373 11.1291 25.9373 11.1631C25.9373 13.3155 22.5861 13.3359 22.5861 11.1631C22.5861 11.1631 22.5861 7.05594 22.5861 7.02869C22.5861 3.65031 17.287 3.58901 17.287 7.02869C17.287 7.02869 17.287 17.3137 17.287 17.3682C17.287 19.5069 13.9358 19.5478 13.9358 17.3682C13.9358 17.3682 13.9358 11.5923 13.9358 11.565C13.9358 8.17301 8.64348 8.13895 8.64348 11.565C8.64348 11.565 8.64348 32.5369 8.64348 32.5913C8.64348 34.7233 5.29236 34.7641 5.29236 32.5913C5.29236 32.5913 5.29236 18.1651 5.29236 18.1515C5.29236 14.8685 0 14.7186 0 18.1515C0 48.2572 0 48.2572 0 47.8485C0 51.2405 5.29236 51.2814 5.29236 47.8485C5.29236 47.8485 5.29236 44.9469 5.29236 44.9197C5.29236 42.781 8.64348 42.7469 8.64348 44.9197C8.64348 44.9197 8.64348 54.3942 8.64348 54.4419C8.64348 57.8339 13.9358 57.8747 13.9358 54.4419C13.9358 54.4419 13.9358 48.3185 13.9358 48.264C13.9358 46.1389 17.287 46.0913 17.287 48.264C17.287 48.264 17.287 58.9236 17.287 58.9713C17.287 62.3565 22.5793 62.4042 22.5793 58.9713C22.5793 58.9713 22.5793 55.2592 22.5793 55.2523C22.5793 53.1477 25.9304 53.0455 25.9304 55.2523C25.9304 55.2523 25.9304 63.4531 25.9304 63.4735C25.9304 66.7634 31.2296 66.92 31.2296 63.4735C31.2296 63.4735 31.2296 55.2864 31.2296 55.2523C31.2296 53.1 34.5807 53.0796 34.5807 55.2523C34.5807 55.2523 34.5807 58.9441 34.5807 58.9713C34.5807 62.3497 39.8799 62.411 39.8799 58.9713C39.8799 58.9713 39.8799 49.1018 39.8799 49.0473C39.8799 46.9086 43.231 46.8677 43.231 49.0473C43.231 49.0473 43.231 54.4078 43.231 54.4419C43.231 57.8339 48.5234 57.8679 48.5234 54.4419C48.5234 54.4419 48.5234 34.301 48.5234 34.2397C48.5234 32.1077 51.8745 32.0669 51.8745 34.2397C51.8745 34.2397 51.8745 47.8417 51.8745 47.8485C51.8745 51.1315 57.1668 51.2814 57.1668 47.8485C57.1668 47.8485 57.1668 18.1583 57.1668 18.1515C57.1668 14.7663 51.8745 14.7254 51.8745 18.1583Z" fill="#DA1A21"/>
<path d="M28.6283 65.3739C27.4976 65.3943 26.3533 64.7745 26.3533 63.4803C26.3533 63.4803 26.3533 55.2864 26.3533 55.2591C26.3533 52.63 22.178 52.6096 22.178 55.2591C22.178 55.2591 22.178 58.9713 22.178 58.9781C22.178 61.7639 17.7098 61.7843 17.7098 58.9781C17.7098 58.9781 17.7098 48.298 17.7098 48.2708C17.7098 45.7234 13.5345 45.6144 13.5345 48.2708C13.5345 48.2708 13.5345 54.4282 13.5345 54.4418C13.5345 57.2276 9.06633 57.2549 9.06633 54.4418C9.06633 54.4418 9.06633 44.9537 9.06633 44.9197C9.06633 42.2837 4.89103 42.2633 4.89103 44.9197C4.89103 44.9197 4.89103 47.8417 4.89103 47.8485C4.89103 50.6002 0.422852 50.6956 0.422852 47.8485C0.422852 47.8485 0.422852 18.24 0.422852 18.1515C0.422852 15.4883 4.89103 15.352 4.89103 18.1515C4.89103 18.1515 4.89103 32.5504 4.89103 32.5913C4.89103 35.2341 9.06633 35.2477 9.06633 32.5913C9.06633 32.5913 9.06633 11.6195 9.06633 11.565C9.06633 8.81324 13.5345 8.75194 13.5345 11.565C13.5345 11.565 13.5345 17.3545 13.5345 17.3681C13.5345 20.0109 17.7098 20.0245 17.7098 17.3681C17.7098 17.3681 17.7098 7.04229 17.7098 7.02866C17.7098 4.33141 22.178 4.23605 22.178 7.02866C22.178 7.02866 22.178 11.1427 22.178 11.1631C22.178 13.7991 26.3533 13.8263 26.3533 11.1631C26.3533 11.1631 26.3533 2.54006 26.3533 2.52644C26.3533 -0.177629 30.8215 -0.225308 30.8215 2.52644V11.1631C30.8215 13.765 34.9968 13.8399 34.9968 11.1631C34.9968 11.1631 34.9968 7.03548 34.9968 7.02866C34.9968 4.24967 39.465 4.21562 39.465 7.02866C39.465 7.02866 39.465 18.097 39.465 18.1515C39.465 20.7942 43.6403 20.7942 43.6403 18.1515V11.565C43.6403 8.86091 48.1084 8.77237 48.1084 11.565C48.1084 11.565 48.1084 21.4685 48.1084 21.5026C48.1084 24.1522 52.2837 24.159 52.2837 21.5026C52.2837 21.5026 52.2837 18.1651 52.2837 18.1583C52.2837 15.3793 56.7519 15.3384 56.7519 18.1583C56.7519 18.1583 56.7519 47.794 56.7519 47.8553C56.7519 50.5798 52.2837 50.6139 52.2837 47.8553C52.2837 47.8553 52.2837 34.2873 52.2837 34.2464C52.2837 31.6241 48.1084 31.5969 48.1084 34.2464C48.1084 34.2464 48.1084 54.3873 48.1084 54.4418C48.1084 57.2344 43.6403 57.2549 43.6403 54.4418C43.6403 54.4418 43.6403 49.0677 43.6403 49.0473C43.6403 46.4249 39.465 46.3841 39.465 49.0473C39.465 49.0473 39.465 58.9508 39.465 58.9713C39.465 61.6822 34.9968 61.7979 34.9968 58.9713C34.9968 58.9713 34.9968 55.2659 34.9968 55.2523C34.9968 52.6164 30.8215 52.5891 30.8215 55.2523C30.8215 55.2523 30.8215 63.4122 30.8215 63.4735C30.8215 64.7132 29.7317 65.3534 28.6283 65.3739Z" fill="#ED2524"/>
<path d="M26.3397 11.3947C26.1149 13.8331 22.1712 13.7309 22.1712 11.1767C22.1712 11.1563 22.1712 7.04225 22.1712 7.04225C22.1712 4.24964 17.703 4.345 17.703 7.04225C17.703 7.05588 17.703 17.3817 17.703 17.3817C17.703 20.0381 13.5277 20.0245 13.5277 17.3817C13.5277 17.3613 13.5277 11.5785 13.5277 11.5785C13.5277 8.76548 9.0595 8.82678 9.0595 11.5785C9.0595 11.633 9.0595 32.6049 9.0595 32.6049C9.0595 35.2613 4.88424 35.2476 4.88424 32.6049C4.88424 32.564 4.88424 18.165 4.88424 18.165C4.88424 15.3656 0.416016 15.5018 0.416016 18.165C0.416016 18.2536 0.416016 47.8621 0.416016 47.8621C0.416016 50.7092 4.88424 50.6138 4.88424 47.8621C4.88424 47.8553 4.88424 44.9333 4.88424 44.9333C4.88424 42.2769 9.0595 42.2973 9.0595 44.9333C9.0595 44.9605 9.0595 54.4554 9.0595 54.4554C9.0595 57.2684 13.5277 57.2412 13.5277 54.4554C13.5277 54.4349 13.5277 48.2844 13.5277 48.2844C13.5277 45.628 17.703 45.737 17.703 48.2844C17.703 48.3116 17.703 58.9917 17.703 58.9917C17.703 61.7979 22.1712 61.7775 22.1712 58.9917C22.1712 58.9781 22.1712 55.2727 22.1712 55.2727C22.1712 52.6232 26.3465 52.6436 26.3465 55.2727V63.4939C26.3465 64.7881 27.4908 65.4079 28.6214 65.3874C29.7249 65.367 30.8146 64.7268 30.8146 63.4939C30.8146 63.4326 30.8146 55.2727 30.8146 55.2727C30.8146 52.6095 34.9899 52.6368 34.9899 55.2727C34.9899 55.2864 34.9899 58.9917 34.9899 58.9917C34.9899 61.8184 39.4581 61.7026 39.4581 58.9917C39.4581 58.9713 39.4581 49.0677 39.4581 49.0677C39.4581 46.4045 43.6334 46.4454 43.6334 49.0677C43.6334 49.0813 43.6334 54.4622 43.6334 54.4622C43.6334 57.2752 48.1016 57.2548 48.1016 54.4622C48.1016 54.4077 48.1016 34.2668 48.1016 34.2668C48.1016 31.6172 52.2769 31.6445 52.2769 34.2668C52.2769 34.3145 52.2769 47.8757 52.2769 47.8757C52.2769 50.6343 56.7451 50.6002 56.7451 47.8757V30.6977C43.8854 29.6352 32.6333 22.0883 26.3397 11.3947Z" fill="#DA1A21"/>
<path d="M44.4782 39.9269C28.8669 39.9269 15.1694 30.3163 9.05974 16.7755C9.05974 23.001 9.05974 32.6048 9.05974 32.6048C9.05974 35.2612 4.88448 35.2476 4.88448 32.6048C4.88448 32.564 4.88448 18.165 4.88448 18.165C4.88448 15.3656 0.41626 15.5018 0.41626 18.165C0.41626 18.2536 0.41626 47.8621 0.41626 47.8621C0.41626 50.7092 4.88448 50.6138 4.88448 47.8621C4.88448 47.8552 4.88448 44.9332 4.88448 44.9332C4.88448 42.2768 9.05974 42.2973 9.05974 44.9332C9.05974 44.9605 9.05974 54.4553 9.05974 54.4553C9.05974 57.2684 13.5279 57.2411 13.5279 54.4553C13.5279 54.4349 13.5279 48.2844 13.5279 48.2844C13.5279 45.628 17.7032 45.7369 17.7032 48.2844C17.7032 48.3116 17.7032 58.9917 17.7032 58.9917C17.7032 61.7979 22.1714 61.7775 22.1714 58.9917C22.1714 58.978 22.1714 55.2727 22.1714 55.2727C22.1714 52.6231 26.3467 52.6436 26.3467 55.2727V63.4939C26.3467 64.788 27.491 65.4078 28.6217 65.3874C29.7251 65.367 30.8149 64.7267 30.8149 63.4939C30.8149 63.4326 30.8149 55.2727 30.8149 55.2727C30.8149 52.6095 34.9902 52.6367 34.9902 55.2727C34.9902 55.2863 34.9902 58.9917 34.9902 58.9917C34.9902 61.8183 39.4584 61.7025 39.4584 58.9917C39.4584 58.9712 39.4584 49.0677 39.4584 49.0677C39.4584 46.4045 43.6337 46.4453 43.6337 49.0677C43.6337 49.0813 43.6337 54.4622 43.6337 54.4622C43.6337 57.2752 48.1018 57.2548 48.1018 54.4622V39.7635C46.9099 39.8588 45.7043 39.9269 44.4782 39.9269Z" fill="#C7161D"/>
<path d="M52.2842 39.1098C52.2842 43.0194 52.2842 47.8554 52.2842 47.8554C52.2842 50.614 56.7524 50.5799 56.7524 47.8554V37.877C55.3016 38.3742 53.8099 38.7897 52.2842 39.1098Z" fill="#C7161D"/>
<path d="M35.7735 50.7023C20.2166 50.7023 6.56001 41.153 0.41626 27.6871C0.41626 36.3715 0.41626 47.8552 0.41626 47.8552C0.41626 50.7023 4.88448 50.607 4.88448 47.8552C4.88448 47.8484 4.88448 44.9264 4.88448 44.9264C4.88448 42.27 9.05974 42.2905 9.05974 44.9264C9.05974 44.9537 9.05974 54.4485 9.05974 54.4485C9.05974 57.2616 13.5279 57.2343 13.5279 54.4485C13.5279 54.4281 13.5279 48.2775 13.5279 48.2775C13.5279 45.6211 17.7032 45.7301 17.7032 48.2775C17.7032 48.3048 17.7032 58.9848 17.7032 58.9848C17.7032 61.7911 22.1714 61.7706 22.1714 58.9848C22.1714 58.9712 22.1714 55.2659 22.1714 55.2659C22.1714 52.6163 26.3467 52.6367 26.3467 55.2659V63.4871C26.3467 64.7812 27.491 65.4011 28.6217 65.3806C29.7251 65.3602 30.8149 64.7199 30.8149 63.4871C30.8149 63.4258 30.8149 55.2659 30.8149 55.2659C30.8149 52.6027 34.9902 52.6299 34.9902 55.2659C34.9902 55.2795 34.9902 58.9848 34.9902 58.9848C34.9902 61.8115 39.4584 61.6957 39.4584 58.9848V50.5253C38.246 50.6411 37.02 50.7023 35.7735 50.7023Z" fill="#B01117"/>
<path d="M52.2842 46.9154C52.2842 47.5012 52.2842 47.8553 52.2842 47.8553C52.2842 50.6139 56.7524 50.5799 56.7524 47.8553V44.3953C55.322 45.3284 53.8303 46.173 52.2842 46.9154Z" fill="#B01117"/>
<path d="M43.6409 49.8716C43.6409 51.3769 43.6409 54.442 43.6409 54.442C43.6409 57.255 48.109 57.2346 48.109 54.442V48.632C46.6514 49.136 45.1666 49.5515 43.6409 49.8716Z" fill="#B01117"/>
</svg>
